# xmcd
#
# Track frame offsets:
#	225
#	18195
#	61923
#	74133
#	87473
#	98720
#	110578
#	132668
#
# Disc length: 1913 seconds
#
# Revision: 0
# Processed by: cddbd v1.4PL0 Copyright (c) Steve Scherf et al.
# Submitted via: dBpowerAMP V4.0
#
DISCID=72077608
DTITLE=B.B. King - The Unexpected Instrumental
DYEAR=1900
DGENRE=Blues
TTITLE0=Sldin' and Glidin'
TTITLE1=Blues With B.B.
TTITLE2=King Of Guitar
TTITLE3=Jumpin With B.B.
TTITLE4=38th Street Blues
TTITLE5=Feedin' The Rock
TTITLE6=Goin' South
TTITLE7=Step It Up
EXTD=
EXTT0=
EXTT1=
EXTT2=
EXTT3=
EXTT4=
EXTT5=
EXTT6=
EXTT7=
PLAYORDER=
